<svg xmlns="http://www.w3.org/2000/svg" xmlns:xlink="http://www.w3.org/1999/xlink" xml:space="preserve" version="1.1" style="shape-rendering:geometricPrecision;text-rendering:geometricPrecision;image-rendering:optimizeQuality;" viewBox="0 0 207 258.75" x="0px" y="0px" fill-rule="evenodd" clip-rule="evenodd"><defs><style type="text/css">
   
    .fil0 {fill:#F8EDFF}
   
  </style></defs><g><path class="fil0" d="M152 84c11,0 20,8 20,19 0,11 -9,20 -20,20 -11,0 -20,-9 -20,-20 0,-11 9,-19 20,-19zm0 -49c11,0 20,9 20,19 0,11 -9,20 -20,20 -11,0 -20,-9 -20,-20 0,-10 9,-19 20,-19zm0 97c11,0 20,9 20,20 0,11 -9,20 -20,20 -11,0 -20,-9 -20,-20 0,-11 9,-20 20,-20zm-98 -97c11,0 20,9 20,19 0,11 -9,20 -20,20 -10,0 -19,-9 -19,-20 0,-10 9,-19 19,-19zm0 49c11,0 20,8 20,19 0,11 -9,20 -20,20 -10,0 -19,-9 -19,-20 0,-11 9,-19 19,-19zm0 48c11,0 20,9 20,20 0,11 -9,20 -20,20 -10,0 -19,-9 -19,-20 0,-11 9,-20 19,-20zm-21 -132l141 0c18,0 33,15 33,33l0 141c0,18 -15,33 -33,33l-141 0c-18,0 -33,-15 -33,-33l0 -141c0,-18 15,-33 33,-33zm141 7l-141 0c-14,0 -26,12 -26,26l0 141c0,14 12,26 26,26l141 0c14,0 26,-12 26,-26l0 -141c0,-14 -12,-26 -26,-26z"/></g></svg>