<svg xmlns="http://www.w3.org/2000/svg" viewBox="0 0 64 80" x="0px" y="0px">
  <title>1</title>
  <g data-name="Layer 5" fill="#F8EDFF">
    <path d="M51.81,7.56H12.19a4.63,4.63,0,0,0-4.62,4.63V51.81a4.63,4.63,0,0,0,4.63,4.63H51.81a4.63,4.63,0,0,0,4.63-4.62V12.19A4.63,4.63,0,0,0,51.81,7.56Zm2.63,44.25a2.63,2.63,0,0,1-2.62,2.63H12.19a2.63,2.63,0,0,1-2.62-2.62V12.19a2.63,2.63,0,0,1,2.63-2.62H51.81a2.63,2.63,0,0,1,2.63,2.63Z"/>
    <circle cx="18.44" cy="18.88" r="4.25"/>
    <circle cx="45.56" cy="18.88" r="4.25"/>
    <circle cx="18.44" cy="45.13" r="4.25"/>
    <circle cx="45.56" cy="45.13" r="4.25"/>
  </g>
</svg>
